<?xml version="1.0" encoding="UTF-8"?>
<svg version="1.1" xmlns="http://www.w3.org/2000/svg" width="1024" height="1024">
<path d="M0 0 C3.71268094 1.54127351 5.98115698 3.80843234 8.75 6.6875 C12.4148514 10.433075 16.15774778 13.95061784 20.13671875 17.35546875 C22.58262858 19.51422774 24.84345225 21.83084338 27.12719727 24.15844727 C28.92715303 25.92836857 30.78083638 27.58199451 32.6953125 29.2265625 C37.03182064 32.99683234 41.20889191 36.91838764 45.375 40.875 C50.67007593 45.88243654 55.99835519 50.83637084 61.4375 55.6875 C68.75949397 62.29515309 75.90864106 69.09609955 83.09765625 75.84765625 C90.01021503 82.33842619 96.94354286 88.80074239 103.9453125 95.1953125 C107.46540811 98.41839279 110.9512873 101.67786015 114.4375 104.9375 C123.73475379 113.62928522 133.08868224 122.25831271 142.47680664 130.85180664 C145.64508674 133.75324032 148.80363521 136.66493899 151.95727539 139.58227539 C157.09221776 144.33234139 162.25479936 149.04698284 167.46484375 153.71484375 C170.36913323 156.3327318 173.24767167 158.97757057 176.125 161.625 C180.01665857 165.20336781 183.94681141 168.72831675 187.94140625 172.19140625 C190.4895665 174.4301125 192.99410593 176.71410212 195.5 179 C202.82184826 185.67079472 210.31064013 192.13162104 217.83569336 198.57080078 C222.25042676 202.35040272 226.64136355 206.15573679 231 210 C230.428709 214.48631462 228.55312305 217.82371876 226.25 221.625 C214.74643867 241.31905603 209.82374 261.7074172 209.95703125 284.484375 C209.96013306 285.49870605 209.96323486 286.51303711 209.96643066 287.55810547 C209.97446579 290.03876675 209.98572996 292.51936807 210 295 C208.75089844 295.01458252 207.50179688 295.02916504 206.21484375 295.04418945 C201.50298895 295.10292742 196.79157515 295.18014279 192.08007812 295.26245117 C190.05541229 295.29535039 188.03066243 295.32348646 186.00585938 295.34643555 C159.12560755 295.1023819 159.12560755 295.1023819 136 306.95703125 C130.91103228 313.35494019 129.6790543 319.50730508 129.8125 327.5 C129.81314453 328.23347656 129.81378906 328.96695312 129.81445312 329.72265625 C129.84821094 333.91612759 130.18329958 337.87076265 131 342 C130.34 342 129.68 342 129 342 C128.76667969 341.41734375 128.53335938 340.8346875 128.29296875 340.234375 C120.81911667 323.43801486 106.41200415 314.04995009 89.77734375 307.3671875 C77.48431538 302.82891251 65.02565113 300.53989971 52.0546875 298.8046875 C51.29424448 298.70195337 50.53380146 298.59921925 49.75031471 298.49337196 C22.90218976 294.89446939 -4.07285641 292.24057506 -31.0100525 289.40451497 C-38.66290017 288.59857856 -46.31507793 287.78636199 -53.96722186 286.97377527 C-69.64411123 285.3091692 -85.32177247 283.65195817 -101 282 C-101 281.67 -101 281.34 -101 281 C-68.76413951 277.17768889 -36.50253197 273.59782247 -4.23104978 270.09120405 C2.13047428 269.39995083 8.49172568 268.70630927 14.85253906 268.00854492 C113.09267278 257.23507328 113.09267278 257.23507328 138.2668457 257.58837891 C141.03046999 257.62627484 143.79277594 257.62938397 146.55664062 257.62890625 C159.45026156 257.68007308 172.18248245 258.63608783 185 260 C180.02351124 226.86950898 165.20942685 197.11730247 143 172 C142.31035156 171.19046875 141.62070312 170.3809375 140.91015625 169.546875 C126.65868407 153.15639343 109.14019787 139.8171785 91 128 C90.03320312 127.36707031 89.06640625 126.73414063 88.0703125 126.08203125 C83.13749043 123.09637579 78.8871039 120.77853061 73.0390625 122.0390625 C68.61950105 124.12184433 66.52532985 127.96869252 64 132 C63.61118652 132.59989746 63.22237305 133.19979492 62.82177734 133.81787109 C41.39885314 166.90520534 26.46633855 203.08147793 20 242 C-12.47406613 230.47886992 -37.96851584 192.59970731 -52.09375 163.140625 C-60.4920688 145.1320349 -66.53517072 125.76113129 -69 106 C-66.05778439 107.31435367 -64.11743608 108.67688667 -61.9609375 111.0625 C-61.38956055 111.68568115 -60.81818359 112.3088623 -60.22949219 112.95092773 C-59.31151855 113.96521851 -59.31151855 113.96521851 -58.375 115 C-40.79251205 134.1892093 -40.79251205 134.1892093 -21 151 C-20.00323242 151.74685059 -20.00323242 151.74685059 -18.98632812 152.50878906 C-16.73183191 154.18925128 -14.46288533 155.84795145 -12.1875 157.5 C-11.46941162 158.02964355 -10.75132324 158.55928711 -10.01147461 159.10498047 C-4.53429496 163.01554178 -4.53429496 163.01554178 2 164 C7.21537655 161.67437955 10.75055571 158.66631689 14.375 154.25 C14.8405127 153.68780762 15.30602539 153.12561523 15.78564453 152.54638672 C31.40119838 133.05753706 37.24426387 110.77488296 34.57421875 86.05859375 C29.39450348 57.10938757 14.33739044 28.74239151 0.89526367 2.84057617 C0 1 0 1 0 0 Z " fill="#DEDEDE" transform="translate(190,225)"/>
<path d="M0 0 C7.92 0 15.84 0 24 0 C24.0680022 34.87963079 24.12162725 69.75923811 24.15319599 104.63892096 C24.15694753 108.76888362 24.16083055 112.89884614 24.16479492 117.02880859 C24.16558185 117.85091344 24.16636878 118.67301828 24.16717956 119.52003539 C24.18018754 132.78285485 24.2038156 146.04563479 24.23145839 159.30843091 C24.25964153 172.94553399 24.27620335 186.58261655 24.28226548 200.21974754 C24.28635535 208.61569441 24.29921064 217.0115295 24.3237494 225.40744191 C24.33976653 231.1866397 24.34436482 236.96578081 24.34050413 242.74499911 C24.338607 246.0654783 24.34295198 249.3856101 24.35761642 252.70607948 C24.44950627 274.60972958 22.43054835 295.68247259 17.9375 317.125 C17.68162109 318.39730469 17.42574219 319.66960937 17.16210938 320.98046875 C16.04234667 326.4555039 14.84899913 331.71870037 13 337 C10.53219474 334.53219474 10.44768 333.13140212 9.81079102 329.72753906 C9.60039688 328.62589417 9.39000275 327.52424927 9.17323303 326.38922119 C8.95235519 325.19343445 8.73147736 323.99764771 8.50390625 322.765625 C8.02279847 320.24739354 7.54167829 317.72916445 7.06054688 315.2109375 C6.43353373 311.89282158 5.81061693 308.57393832 5.18859863 305.25488281 C4.34516359 300.75656261 3.48854928 296.26088271 2.62890625 291.765625 C2.41005264 290.57793518 2.19119904 289.39024536 1.9657135 288.16656494 C0.58324457 278.80842409 0.58324457 278.80842409 -4.92871094 271.6484375 C-12.50840541 269.27553928 -18.8859937 271.69597438 -25.75 275 C-26.62325928 275.40863281 -27.49651855 275.81726563 -28.39624023 276.23828125 C-47.71335997 285.44692204 -64.18941556 297.51739103 -74 317 C-81.855427 315.88644441 -89.20916692 314.2747345 -96.6875 311.625 C-97.66372314 311.28049805 -98.63994629 310.93599609 -99.64575195 310.58105469 C-126.35009701 300.84723923 -150.68579864 286.48350484 -173 269 C-173.90661377 268.29037109 -173.90661377 268.29037109 -174.83154297 267.56640625 C-193.25618002 252.92431058 -209.9546168 235.5680748 -223 216 C-223 215.01 -223 214.02 -223 213 C-222.030625 212.91363281 -221.06125 212.82726562 -220.0625 212.73828125 C-195.65722509 210.30113868 -173.33666071 199.88459562 -154 185 C-153.44973145 184.5767041 -152.89946289 184.1534082 -152.33251953 183.71728516 C-134.59114348 169.82875268 -115.20047266 151.40094533 -105 131 C-104.34 131 -103.68 131 -103 131 C-104.76956001 138.19621072 -107.04987158 145.17904162 -109.4375 152.1875 C-117.56859004 176.31470042 -124.51526837 203.90293203 -113.41015625 228.25 C-105.88565856 242.92381268 -94.60628458 250.16062061 -79.52734375 255.94921875 C-65.09340771 259.8705771 -49.83505492 256.59301147 -36.921875 249.78515625 C-22.39864591 240.91200693 -15.44844854 227.32269462 -11.28515625 211.23828125 C-9.39156966 202.43379472 -8.8441625 193.48858682 -8.796875 184.50390625 C-8.79117493 183.63088364 -8.78547485 182.75786102 -8.77960205 181.85838318 C-8.77022467 180.02059105 -8.7636473 178.18278266 -8.75976562 176.3449707 C-8.75013199 173.60010621 -8.71906797 170.85601548 -8.6875 168.11132812 C-8.4673376 131.5483353 -20.72220784 100.4178587 -40.65429688 70.08105469 C-45.99902486 61.81573151 -50.73788634 53.31419294 -54 44 C-50.54025279 45.32361541 -47.21635726 46.84202349 -43.88623047 48.46240234 C-29.42454395 55.45926802 -17.39331737 58 -1 58 C-0.67 38.86 -0.34 19.72 0 0 Z " fill="#DEDEDE" transform="translate(500,618)"/>
<path d="M0 0 C11.54087317 9.94290612 20.1634844 21.68286152 25.6015625 35.875 C25.84801514 36.51526123 26.09446777 37.15552246 26.34838867 37.81518555 C33.95414233 58.65016576 32.876477 84.0560255 23.6159668 104.10375977 C13.34963708 125.19235764 -3.40243228 141.82604484 -25.6484375 149.875 C-51.79658475 157.86847506 -74.9525395 155.93064011 -99.3359375 143.625 C-105.59153578 140.1605937 -110.5915317 135.89381235 -115.6484375 130.875 C-116.5353125 130.029375 -117.4221875 129.18375 -118.3359375 128.3125 C-119.480625 127.1059375 -119.480625 127.1059375 -120.6484375 125.875 C-121.17824219 125.3284375 -121.70804687 124.781875 -122.25390625 124.21875 C-136.62742722 108.73469209 -143.35216844 86.69349764 -142.83203125 65.765625 C-141.2856983 41.41910624 -133.22766199 21.00684902 -115.6484375 3.875 C-114.99359375 3.21113281 -114.33875 2.54726563 -113.6640625 1.86328125 C-82.78666042 -27.49664167 -32.01732639 -25.68941823 0 0 Z " fill="#DEDEDE" transform="translate(567.6484375,437.125)"/>
<path d="M0 0 C12.7138573 3.66331481 23.20361614 10.18786821 33 19 C34.06154297 19.93779297 34.06154297 19.93779297 35.14453125 20.89453125 C50.26152221 35.0573926 61.50412372 57.38089675 62.33203125 78.21875 C62.22741203 84.64457252 60.39185508 90.13794773 58.1875 96.125 C57.5828894 97.8107312 57.5828894 97.8107312 56.96606445 99.53051758 C43.29467945 136.92124651 24.33223387 172.92874802 -2 203 C-3.25089194 199.24732417 -2.58724789 196.90300128 -2 193 C-0.85763083 166.4067084 -6.84144613 141.12067659 -25 121 C-25.62519531 120.29359375 -26.25039063 119.5871875 -26.89453125 118.859375 C-39.4285427 105.48295545 -58.96474582 96.60675183 -77.17578125 95.6875 C-94.47898688 95.14869778 -112.73098272 97.70869978 -126 110 C-126.84298489 111.90052071 -126.84298489 111.90052071 -127 114 C-125.55850517 116.6518639 -124.08085978 119.02640377 -122.375 121.5 C-121.34475153 123.04146583 -120.31481594 124.58314081 -119.28515625 126.125 C-118.47135498 127.32962891 -118.47135498 127.32962891 -117.64111328 128.55859375 C-114.98553903 132.50916538 -112.4012773 136.50547368 -109.8125 140.5 C-109.27665283 141.32387207 -108.74080566 142.14774414 -108.1887207 142.99658203 C-97.99340556 158.6800801 -87.96703077 174.47284686 -77.93334961 190.26000977 C-74.09723608 196.29037805 -70.23031031 202.29972888 -66.33837891 208.29418945 C-61.34798223 215.9879459 -56.41508888 223.71857791 -51.48095703 231.44848633 C-48.36308654 236.32858122 -45.24102244 241.20063429 -42 246 C-44.88658275 244.6915839 -46.95322821 243.29658997 -49.19006062 241.05882835 C-49.79981875 240.45366902 -50.40957688 239.84850968 -51.03781253 239.22501218 C-52.02871073 238.22639864 -52.02871073 238.22639864 -53.03962708 237.20761108 C-53.74864392 236.50100865 -54.45766077 235.79440622 -55.18816298 235.06639159 C-57.56878583 232.69141575 -59.94217775 230.30934271 -62.31567383 227.92724609 C-64.01874789 226.22524471 -65.72225475 224.52367631 -67.42616272 222.82250977 C-71.5773885 218.67563474 -75.72394483 214.52412646 -79.86836723 210.37045495 C-84.6986711 205.52976027 -89.53420469 200.69430392 -94.3699493 195.85904546 C-103.00343703 187.22605849 -111.63208362 178.5882489 -120.25805664 169.94775391 C-128.61870018 161.57304245 -136.98281769 153.20182126 -145.35083008 144.83447266 C-145.86555859 144.3197841 -146.38028711 143.80509554 -146.91061345 143.27481036 C-147.4244699 142.76099427 -147.93832634 142.24717819 -148.46775419 141.71779191 C-158.0021501 132.18408734 -167.53324556 122.64708921 -177.06282375 113.10856914 C-180.42715398 109.74123083 -183.79245235 106.37486193 -187.15806007 103.00880051 C-191.69704881 98.46905515 -196.23321962 93.92650552 -200.76756859 89.38212585 C-202.42954215 87.71724005 -204.09235245 86.05318903 -205.756073 84.39004898 C-208.03284664 82.11376899 -210.30650604 79.83442186 -212.579422 77.55429077 C-213.23332863 76.90193274 -213.88723527 76.24957471 -214.56095725 75.57744825 C-218.3699537 71.7485647 -221.99120083 67.8046958 -225.51395774 63.71052074 C-227.29536083 61.66002257 -229.16622384 59.726421 -231.09936523 57.81884766 C-231.81958359 57.10516022 -232.53980194 56.39147278 -233.28184509 55.65615845 C-234.40883568 54.54632095 -234.40883568 54.54632095 -235.55859375 53.4140625 C-237.17655994 51.80872239 -238.7943948 50.20324992 -240.41210938 48.59765625 C-242.94076651 46.09397168 -245.47100903 43.59192772 -248.00366211 41.09228516 C-250.46378098 38.66218215 -252.91779733 36.22605003 -255.37109375 33.7890625 C-256.13659042 33.03702545 -256.9020871 32.2849884 -257.69078064 31.51016235 C-258.73801048 30.46800064 -258.73801048 30.46800064 -259.80639648 29.40478516 C-260.42481918 28.79381989 -261.04324188 28.18285461 -261.68040466 27.55337524 C-263 26 -263 26 -263 24 C-261.56640625 22.625 -261.56640625 22.625 -259.5625 21 C-254.55276148 16.76099049 -250.29804256 11.94473878 -246 7 C-242.63062552 7.57991413 -241.03447573 8.60349679 -238.6875 11.0625 C-238.15511719 11.61035156 -237.62273438 12.15820312 -237.07421875 12.72265625 C-235.85725639 14.05879384 -234.65138445 15.40547322 -233.47314453 16.77587891 C-209.37194297 44.7978501 -174.58067154 71.04913091 -136.55078125 74.203125 C-121.85179076 74.51095726 -109.84101362 68.89629013 -99.25 58.875 C-84.149367 42.94990715 -76.99225978 22.15048265 -73 1 C-72.67 1 -72.34 1 -72 1 C-71.87995605 1.80405273 -71.75991211 2.60810547 -71.63623047 3.43652344 C-66.03276249 44.50289706 -66.03276249 44.50289706 -42.296875 77.1328125 C-33.31929261 83.12622644 -24.87262662 86.29121612 -14 85 C-2.3660219 82.49742853 6.02923519 76.77237465 12.4921875 66.77734375 C19.1016173 54.60297954 20.10904005 40.45908417 16.4375 27.1875 C13.18011192 18.0232286 8.61867498 9.78397218 1.28515625 3.3046875 C0 2 0 2 0 0 Z " fill="#DEDEDE" transform="translate(845,569)"/>
<path d="M0 0 C0 3.9754612 -1.87908382 5.83498782 -4.25 8.8125 C-4.69529053 9.38145996 -5.14058105 9.95041992 -5.59936523 10.53662109 C-9.94967837 16.04275641 -14.5242108 21.35211259 -19.12109375 26.65234375 C-21.68472505 29.61519444 -24.16515196 32.6376355 -26.625 35.6875 C-30.42559563 40.37307187 -34.4463798 44.81211633 -38.53125 49.25 C-40.94378104 51.93737634 -43.2325621 54.68965444 -45.5 57.5 C-48.55348679 61.28460334 -51.70668301 64.92207537 -55 68.5 C-73.13201003 87.66002081 -73.13201003 87.66002081 -82.4375 111.625 C-81.00552788 122.67164203 -74.64526685 130.28553899 -66.0625 137.0625 C-47.95616829 150.73204098 -27.94187183 156.15581525 -5.46484375 153.59765625 C12.96362426 150.10378313 29.22382057 138.54631669 39.87890625 123.3359375 C57.42552114 95.73960395 63.44261749 64.04681219 56.65625 31.875 C56.4396875 30.92625 56.223125 29.9775 56 29 C56.66 29 57.32 29 58 29 C59.16992188 30.36669922 59.16992188 30.36669922 60.46875 32.3046875 C60.95230957 33.02366211 61.43586914 33.74263672 61.93408203 34.48339844 C62.45083496 35.27262695 62.96758789 36.06185547 63.5 36.875 C64.03608887 37.69000977 64.57217773 38.50501953 65.12451172 39.34472656 C93.67288416 83.2874094 115.9512144 141.44996393 121 194 C120.67 194.99 120.34 195.98 120 197 C119.38253906 195.91203125 118.76507812 194.8240625 118.12890625 193.703125 C104.30291206 169.39751504 104.30291206 169.39751504 81.625 154.1875 C63.65380739 149.38413976 45.80893232 154.61681076 30.12890625 163.5234375 C18.00683914 170.67126738 7.40577464 179.57731043 -3 189 C-3.88582764 189.79535156 -4.77165527 190.59070313 -5.68432617 191.41015625 C-16.78972039 201.46583304 -27.23369243 212.19258193 -37.75512695 222.85107422 C-40.22179016 225.34771218 -42.69445579 227.83827599 -45.16796875 230.328125 C-46.30530708 231.48565277 -46.30530708 231.48565277 -47.46562195 232.66656494 C-48.5136071 233.71961823 -48.5136071 233.71961823 -49.58276367 234.79394531 C-50.19641281 235.41505188 -50.81006195 236.03615845 -51.44230652 236.67608643 C-53 238 -53 238 -55 238 C-55.09498779 237.34217529 -55.18997559 236.68435059 -55.2878418 236.0065918 C-60.37969882 201.25806719 -68.41087385 163.57698136 -98 141 C-103.98898064 136.78021923 -109.77084882 136.06647182 -117 137 C-121.24280224 138.7524618 -123.79022335 141.77208902 -127 145 C-128.02785853 146.01772284 -129.0565365 147.0346186 -130.0859375 148.05078125 C-135.34854156 153.26263084 -140.53208832 158.45859911 -145.328125 164.109375 C-148.01264327 167.14513865 -150.93259985 169.94025449 -153.81640625 172.78515625 C-155.77974671 174.77659461 -157.62079669 176.81302578 -159.4375 178.9375 C-162.15619248 182.1103592 -165.02751675 185.06338382 -168 188 C-170.91053801 190.87557659 -173.72424022 193.75874094 -176.375 196.875 C-179.93588505 201.04777938 -183.81496147 204.87175294 -187.73779297 208.70068359 C-190.73169006 211.64365408 -193.44712222 214.66724547 -196 218 C-200.36660754 217.54089407 -202.33912542 214.89386866 -205.25 211.8125 C-209.52048683 207.37502296 -213.90036076 203.4630788 -219 200 C-218.47288169 195.82209935 -216.20570871 193.739362 -213.375 190.75 C-212.89353516 190.23695313 -212.41207031 189.72390625 -211.91601562 189.1953125 C-210.85563932 188.0667405 -209.79199676 186.94123097 -208.72558594 185.81835938 C-206.27924437 183.24049406 -203.85155191 180.64530421 -201.42211914 178.05151367 C-200.13317648 176.67580108 -198.84328875 175.30097339 -197.55249023 173.92700195 C-192.9273341 169.00246396 -188.35351299 164.03491067 -183.796875 159.046875 C-178.8397026 153.63321478 -173.81240298 148.28422821 -168.79833984 142.92333984 C-166.4458387 140.40731975 -164.09557058 137.8892219 -161.74584961 135.37060547 C-160.57411261 134.11513785 -159.40174072 132.86026251 -158.22875977 131.60595703 C-155.42312266 128.60464989 -152.62575319 125.59682307 -149.8515625 122.56640625 C-142.86278132 114.95804089 -135.67774132 107.54905771 -128.39691162 100.22067261 C-127.35851087 99.17489157 -126.32170691 98.12752204 -125.28668213 97.07839966 C-118.54344524 90.25172796 -111.55206747 83.93747714 -104 78 C-103.36763428 77.49339844 -102.73526855 76.98679687 -102.08374023 76.46484375 C-89.32832944 66.24699148 -76.18967519 56.53622343 -62.92285156 46.99658203 C-56.61834463 42.46008399 -50.36453602 37.85748177 -44.11938477 33.23974609 C-38.65064682 29.20151812 -33.14648133 25.21570482 -27.625 21.25 C-18.18062696 14.45660716 -8.90974274 7.48629272 0 0 Z " fill="#DEDEDE" transform="translate(796,212)"/>
<path d="M0 0 C-2.21770171 2.21770171 -3.63240566 2.72355905 -6.56640625 3.7421875 C-7.98832275 4.24854736 -7.98832275 4.24854736 -9.43896484 4.76513672 C-10.98511475 5.31451904 -10.98511475 5.31451904 -12.5625 5.875 C-45.25012401 17.84713234 -73.94906255 34.82866007 -99 59 C-100.06734375 59.97259766 -100.06734375 59.97259766 -101.15625 60.96484375 C-115.78461193 74.66394498 -129.74772607 94.84920685 -130.4375 115.3125 C-129.71914849 141.83829463 -107.79663964 162.08183272 -89.76611328 179.34326172 C-82.44043547 187.00230783 -82.44043547 187.00230783 -73 190 C-72.39478516 188.35644531 -72.39478516 188.35644531 -71.77734375 186.6796875 C-58.66405185 152.06044761 -39.85544589 114.86126415 -14 88 C-13.34 88 -12.68 88 -12 88 C-13.71392373 93.1751593 -15.45812319 98.33807194 -17.234375 103.4921875 C-31.21763716 144.3456285 -44.82059493 190.76060178 -34 234 C-33.83902832 234.64582031 -33.67805664 235.29164063 -33.51220703 235.95703125 C-24.77136956 269.47616977 -5.35914381 301.57044982 12.01049805 331.28051758 C12.7117968 332.49918206 13.37119748 333.74239496 14 335 C10.49172085 333.47920927 8.04728354 331.4004327 5.25 328.8125 C2.28895369 326.09246909 -0.67883897 323.40710156 -3.75 320.8125 C-12.08423761 313.54762485 -20.03076275 305.5488713 -27.171875 297.109375 C-29.16151214 294.81363984 -31.22242795 292.59703387 -33.29614258 290.37744141 C-37.49646602 285.88159498 -41.58872189 281.36815665 -45.4375 276.5625 C-48.94643139 272.18748028 -52.65844505 268.07979091 -56.5 264 C-61.12293021 259.09037644 -65.4660099 254.05521692 -69.68359375 248.7890625 C-73.35815256 244.36472019 -77.30016163 240.19593654 -81.22265625 235.9921875 C-83.9364646 233.08162125 -86.55739756 230.09988008 -89.16015625 227.08984375 C-92.04121358 223.81730517 -95.00615642 220.62174457 -97.95996094 217.41503906 C-100.45126546 214.7054683 -102.91160853 211.97739667 -105.3125 209.1875 C-110.41585782 203.30833482 -115.7977264 197.67963298 -121.125 192.00439453 C-122.91398145 190.09195473 -124.69292416 188.1707459 -126.46875 186.24609375 C-133.96290947 178.14754972 -141.64583988 170.24888378 -149.4375 162.4375 C-150.36111328 161.50929443 -151.28472656 160.58108887 -152.23632812 159.62475586 C-157.33137333 154.54123999 -162.52823745 149.67325707 -168 145 C-169.07201667 144.05140158 -170.14240498 143.10095887 -171.2109375 142.1484375 C-184.75617034 130.2115282 -199.32686008 119.94617279 -215 111 C-213.62267001 106.89715986 -211.76356341 104.33157616 -208.8125 101.1875 C-208.00554687 100.31738281 -207.19859375 99.44726562 -206.3671875 98.55078125 C-205.58601562 97.70902344 -204.80484375 96.86726563 -204 96 C-202.80698623 94.62978126 -201.61896418 93.25518972 -200.4375 91.875 C-180.07285323 68.55419483 -153.70126509 50.27735915 -127 35 C-126.28908203 34.59152832 -125.57816406 34.18305664 -124.84570312 33.76220703 C-87.03200824 12.26896053 -43.51738183 -0.82515456 0 0 Z " fill="#DEDEDE" transform="translate(437,74)"/>
<path d="M0 0 C4.68925979 1.48128019 7.94432994 4.23286384 11.5625 7.4375 C12.48385742 8.2421167 12.48385742 8.2421167 13.42382812 9.06298828 C15.29048987 10.69992927 17.14679632 12.34784907 19 14 C19.52577637 14.46647949 20.05155273 14.93295898 20.59326172 15.41357422 C31.64126387 25.25044139 42.57821542 35.57316622 52 47 C52.45697266 47.54317871 52.91394531 48.08635742 53.38476562 48.64599609 C73.37793958 72.42990571 85.71857258 95.14496579 91.77001953 125.83862305 C94.79315084 140.85238807 99.18296454 152.81834187 112 162 C126.53278402 170.01976376 145.91707137 168.76234903 161.4609375 164.2890625 C166.06946464 162.6104599 170.36257297 160.55795934 174.64453125 158.171875 C177 157 177 157 180 157 C171.03503782 170.52491825 160.92322662 182.24227611 149.5 193.75 C148.63407227 194.62527344 147.76814453 195.50054688 146.87597656 196.40234375 C140.8939298 202.35512193 134.63114396 207.78308717 128 213 C127.35627441 213.50837402 126.71254883 214.01674805 126.04931641 214.54052734 C99.4875447 235.18782707 54.01712303 263 19 263 C20.94880343 258.94234648 23.3041815 255.17046284 25.66015625 251.33984375 C29.52974155 244.58217146 28.90099904 235.33130863 27.3515625 227.8828125 C23.81495076 217.21252239 16.97049004 210.40038661 8 204 C6.66473865 203.00257586 5.33080566 202.00336138 4 201 C5.05058594 200.49210938 6.10117187 199.98421875 7.18359375 199.4609375 C26.32318583 190.11921096 41.05481925 179.05410554 48.66113281 158.40551758 C57.59614695 132.15961598 53.78944634 105.74012434 45 80 C44.67008057 78.99308105 44.67008057 78.99308105 44.33349609 77.96582031 C35.39752951 50.82084408 19.91862404 25.62001025 2.10058594 3.4543457 C1 2 1 2 0 0 Z " fill="#DEDEDE" transform="translate(566,676)"/>
<path d="M0 0 C-1.23363281 0.90878906 -1.23363281 0.90878906 -2.4921875 1.8359375 C-21.5686223 16.06574046 -36.39329278 33.70365446 -40 58 C-41.15809333 72.42064164 -38.1172383 85.0328446 -29.03125 96.48046875 C-22.34966616 103.70674692 -13.05377652 109.63545867 -3.04296875 110.23828125 C7.31212826 110.47702167 16.1985651 109.68995196 26 106 C27.13695312 105.5875 28.27390625 105.175 29.4453125 104.75 C44.15861525 98.95684277 56.31093735 89.46172944 68 79 C68.96550781 78.14535156 69.93101562 77.29070312 70.92578125 76.41015625 C79.31126185 68.87711015 87.22017733 60.85002836 95.13452148 52.82885742 C99.64428876 48.27632059 104.19172506 43.8802896 109.05932617 39.71362305 C112.70176957 36.4973304 116.08600451 33.01758988 119.5 29.5625 C120.22703125 28.83095703 120.9540625 28.09941406 121.703125 27.34570312 C123.47109499 25.56610176 125.23666378 23.78419082 127 22 C127.66 22.33 128.32 22.66 129 23 C122.37348767 36.04259369 114.99484235 48.41017094 106.875 60.5625 C106.46060669 61.18554016 106.04621338 61.80858032 105.6192627 62.45050049 C88.70738351 87.8116354 69.03885805 112.08260306 45 131 C43.90671354 131.88307744 42.8142997 132.76723606 41.72265625 133.65234375 C21.86881077 149.65812832 -9.67745192 174 -36 174 C-36.06993164 173.29093506 -36.13986328 172.58187012 -36.21191406 171.85131836 C-39.52632136 138.98699839 -48.07915763 105.60461045 -74.77734375 83.62109375 C-82.33730951 78.10723472 -89.9096889 73.46516911 -99 71 C-97.51918101 66.76233715 -95.34503777 63.25207899 -92.75 59.625 C-92.31888916 59.02212158 -91.88777832 58.41924316 -91.44360352 57.7980957 C-86.37691363 50.90189115 -80.54319739 44.75154867 -74.58203125 38.62890625 C-73.22812057 37.2348797 -71.89329903 35.82235666 -70.5625 34.40625 C-54.88003751 18.03191416 -33.88199563 5.90300187 -11.875 0.5625 C-11.1519165 0.38614014 -10.42883301 0.20978027 -9.68383789 0.02807617 C-6.19086712 -0.75222008 -3.39671192 -1.34636509 0 0 Z " fill="#DFDFDF" transform="translate(213,567)"/>
<path d="M0 0 C3.04366471 1.41215074 5.57198204 3.11180468 8.25 5.125 C33.27380662 22.72215056 63.58221635 27.10378936 93.27148438 30.4074707 C94.22617332 30.51487095 95.18086226 30.62227121 96.16448116 30.73292601 C116.10694303 32.97286841 136.075272 34.87089879 156.0614109 36.67197204 C160.75225166 37.09623662 165.44244678 37.52752133 170.13269043 37.95832825 C184.95233036 39.31834261 199.77288775 40.66823096 214.59395933 42.0125497 C224.44301814 42.90593207 234.29163594 43.8038825 244.13947248 44.7106474 C249.6874098 45.22111637 255.23594528 45.72427146 260.78505421 46.22183454 C264.20765646 46.53039231 267.62961653 46.84565133 271.05142975 47.16282845 C272.63628429 47.30835868 274.2213973 47.4511048 275.80677032 47.59087372 C277.96703285 47.78171692 280.12615322 47.98246276 282.28527832 48.18571472 C283.49283028 48.29536654 284.70038223 48.40501837 285.94452667 48.51799297 C288.74093788 48.95913243 290.59453948 49.55533972 293 51 C291.95925921 51.09993224 291.95925921 51.09993224 290.89749336 51.20188332 C273.69414398 52.85390433 256.49103022 54.50835923 239.28814888 56.16524696 C230.96759641 56.96658307 222.6469759 57.76719779 214.32617188 58.56591797 C182.62468476 61.60941494 150.92296508 64.65348408 119.2409935 67.89500046 C116.82537479 68.14194174 114.40962139 68.38757 111.99371719 68.63170242 C52.75492453 73.77313794 52.75492453 73.77313794 0 99 C-0.66 98.67 -1.32 98.34 -2 98 C-1.66226563 97.05382812 -1.32453125 96.10765625 -0.9765625 95.1328125 C2.58813837 84.71435168 4.05623018 74.98204884 5 64 C-2.59 64 -10.18 64 -18 64 C-18 54.76 -18 45.52 -18 36 C-10.41 36 -2.82 36 5 36 C4.60226669 23.47140068 3.08374438 12.13417556 0 0 Z " fill="#DEDEDE" transform="translate(642,456)"/>
<path d="M0 0 C0.33 0 0.66 0 1 0 C8.20194313 52.61591961 15.39885014 105.23255499 22.42793274 157.87189484 C22.80998014 160.73114137 23.19279029 163.59028484 23.57580566 166.44940186 C24.17752538 170.94226512 24.77708863 175.43541105 25.37493706 179.92879105 C25.59025634 181.54522719 25.80617814 183.16158323 26.0228138 184.77784348 C27.50406545 195.83633341 28.80733608 206.90668047 30 218 C29.44556717 218.27053192 28.89113434 218.54106384 28.31990051 218.8197937 C27.59534164 219.17687408 26.87078278 219.53395447 26.12426758 219.90185547 C25.40483475 220.25488739 24.68540192 220.60791931 23.94416809 220.97164917 C19.06405772 223.55294117 16.12438537 227.89148997 14.36401367 233.04638672 C12.06299997 241.19790836 12.51726794 249.73356939 12.48828125 258.1328125 C12.4714122 259.97941261 12.453259 261.82600139 12.43388367 263.6725769 C12.38661912 268.50244608 12.35665803 273.33226931 12.33044434 278.16229248 C12.3005193 283.10307891 12.25403033 288.04370739 12.20898438 292.984375 C12.12321936 302.65618501 12.05728895 312.32797936 12 322 C4.08 321.67 -3.84 321.34 -12 321 C-11.99476318 319.17645996 -11.98952637 317.35291992 -11.98413086 315.47412109 C-11.96780292 309.35147644 -11.95642496 303.22883705 -11.94818783 297.10617638 C-11.94303712 293.40524419 -11.93608762 289.70433622 -11.92456055 286.00341797 C-11.8527742 265.14416183 -11.8527742 265.14416183 -12.3671875 244.29296875 C-12.39622665 243.42284149 -12.42526581 242.55271423 -12.45518494 241.65621948 C-12.83465966 233.62901324 -14.96878434 227.50134141 -21 222 C-23.66559313 220.22293791 -26.0280615 219.12451727 -29 218 C-28.34432106 206.20126532 -26.66806535 194.56276807 -25.04296875 182.8671875 C-24.7402004 180.66606994 -24.43783744 178.46489658 -24.135849 176.26367188 C-23.49173275 171.57278445 -22.84552227 166.88219269 -22.1975708 162.1918335 C-20.48831246 149.81666432 -18.79252453 137.43964693 -17.09765625 125.0625 C-16.84003132 123.18230478 -16.84003132 123.18230478 -16.57720184 121.26412582 C-14.12931993 103.39038564 -11.72436266 85.51144332 -9.37109375 67.625 C-9.16059545 66.02522497 -9.16059545 66.02522497 -8.94584465 64.39313126 C-7.61364625 54.26183317 -6.28787796 44.12970335 -4.96789265 33.9968071 C-4.4897846 30.32917235 -4.01006862 26.66174889 -3.53012276 22.99435425 C-3.20482797 20.50257659 -2.88222754 18.01046046 -2.55979919 15.51831055 C-2.3656808 14.03286047 -2.17143924 12.54742648 -1.97705078 11.06201172 C-1.72847824 9.14810135 -1.72847824 9.14810135 -1.47488403 7.19552612 C-1.10814622 4.72772307 -0.67494897 2.39669531 0 0 Z " fill="#DDDDDD" transform="translate(512,67)"/>
<path d="M0 0 C3.15857231 1.49343112 4.9659446 2.84726562 7.1875 5.5625 C11.19689696 10.31276379 15.56206234 14.65263249 20 19 C18.33762881 23.33452638 15.03897438 26.22960465 11.80830383 29.42547607 C11.16633267 30.06845052 10.52436151 30.71142497 9.86293668 31.37388349 C7.70671946 33.53105464 5.54342934 35.68099064 3.38012695 37.83105469 C1.83412268 39.37485806 0.28856562 40.91910939 -1.25657654 42.46377563 C-4.58763193 45.79189499 -7.92182327 49.11682941 -11.25845909 52.43935394 C-16.53735948 57.69600151 -21.80917521 62.9597155 -27.08003235 68.22442627 C-34.47408002 75.60837908 -41.87125222 82.98918807 -49.27124023 90.3671875 C-49.74079019 90.83534414 -50.21034015 91.30350079 -50.69411889 91.785844 C-51.16422904 92.25455861 -51.63433918 92.72327322 -52.11869508 93.2061913 C-67.05640936 108.09959698 -81.98859491 122.99854121 -96.91551429 137.90276647 C-102.15280246 143.1316615 -107.39288653 148.35773362 -112.63525522 153.58153486 C-115.90284137 156.83844635 -119.1683719 160.09741322 -122.43340492 163.356884 C-123.94376021 164.86378073 -125.45498597 166.3698056 -126.96716309 167.87487411 C-129.03825019 169.93644271 -131.10616742 172.00114229 -133.17338562 174.06658936 C-133.76640132 174.65532798 -134.35941702 175.2440666 -134.9704029 175.85064578 C-138.62698873 179.51215172 -142.07964984 183.30543481 -145.45528537 187.22765374 C-147.54326703 189.62332374 -149.75102339 191.88063941 -151.99609375 194.12890625 C-152.88490234 195.01900391 -153.77371094 195.90910156 -154.68945312 196.82617188 C-155.59630859 197.72916016 -156.50316406 198.63214844 -157.4375 199.5625 C-158.79198242 200.9227832 -158.79198242 200.9227832 -160.17382812 202.31054688 C-161.06392578 203.19935547 -161.95402344 204.08816406 -162.87109375 205.00390625 C-164.06109985 206.19222046 -164.06109985 206.19222046 -165.27514648 207.40454102 C-167.42998808 209.45705612 -169.61172378 211.41497312 -171.86157227 213.359375 C-175.85755237 216.83093489 -179.61765189 220.48872106 -183.34375 224.24609375 C-184.32559265 225.23005882 -184.32559265 225.23005882 -185.32727051 226.23390198 C-187.38723823 228.29940145 -189.44367366 230.36837595 -191.5 232.4375 C-192.9086205 233.85114434 -194.31747267 235.26455786 -195.7265625 236.67773438 C-199.15372133 240.11583149 -202.57772019 243.55704656 -206 247 C-209.00179341 245.67627287 -210.85053807 244.32824421 -212.9453125 241.8125 C-213.46480469 241.19632813 -213.98429688 240.58015625 -214.51953125 239.9453125 C-215.04933594 239.30335938 -215.57914063 238.66140625 -216.125 238 C-217.18953252 236.72868778 -218.25461346 235.45783452 -219.3203125 234.1875 C-219.78711426 233.62417969 -220.25391602 233.06085938 -220.73486328 232.48046875 C-221.76831123 231.27112326 -222.87515975 230.12484025 -224 229 C-223.84675614 224.77087213 -220.89808704 222.54383251 -218.04052734 219.71582031 C-217.52493256 219.20139374 -217.00933777 218.68696716 -216.4781189 218.1569519 C-214.7709207 216.45694304 -213.0534504 214.76770687 -211.3359375 213.078125 C-210.14271568 211.8930453 -208.95023162 210.70722234 -207.75845337 209.52069092 C-204.61436291 206.39373091 -201.46182934 203.27542947 -198.30700684 200.15930176 C-193.27712346 195.18852992 -188.25963629 190.20525758 -183.24303055 185.22109222 C-181.49831862 183.49020981 -179.74976732 181.7632842 -178.00057983 180.03692627 C-176.9122418 178.95862899 -175.82399078 177.88024389 -174.73583984 176.80175781 C-174.25763794 176.33186432 -173.77943604 175.86197083 -173.28674316 175.37783813 C-170.68810408 172.79583342 -168.23836004 170.14037349 -165.85549927 167.35748291 C-161.03551824 161.79982731 -155.78765105 156.66413682 -150.57617188 151.47851562 C-149.43357859 150.33784508 -148.29121541 149.19694401 -147.14906311 148.05583191 C-144.70278489 145.61269773 -142.2549661 143.17112171 -139.80592346 140.73075867 C-135.92769319 136.86613143 -132.05335206 132.99762073 -128.17956543 129.12854004 C-119.25771006 120.21869138 -110.33083457 111.31387801 -101.40390778 102.40911102 C-93.2174606 94.2428815 -85.03209557 86.07557493 -76.85078287 77.90420103 C-73.00553921 74.06391775 -69.15787591 70.22608085 -65.3082962 66.39014435 C-62.90816649 63.9975118 -60.51014439 61.60277523 -58.11266899 59.20748329 C-57.0070547 58.10372951 -55.90058215 57.00083461 -54.79315376 55.89890099 C-49.49585264 50.62704221 -44.28588448 45.33029564 -39.42297935 39.64980316 C-37.60694824 37.54429554 -35.68605949 35.56590441 -33.71704102 33.60351562 C-32.95678116 32.8433313 -32.1965213 32.08314697 -31.41322327 31.29992676 C-30.61814865 30.51001343 -29.82307404 29.7201001 -29.00390625 28.90625 C-28.17036118 28.07411987 -27.3368161 27.24198975 -26.47801208 26.38464355 C-23.84186738 23.75405065 -21.20224895 21.12697559 -18.5625 18.5 C-16.76344021 16.70596145 -14.9646098 14.91169285 -13.16601562 13.1171875 C-8.77999188 8.74212875 -4.39111858 4.36994488 0 0 Z " fill="#DFDFDF" transform="translate(420,573)"/>
<path d="M0 0 C39.626614 17.71542743 70.08362128 53.2785735 88.390625 91.7734375 C89.21634428 94.7904887 89.35448865 96.13330826 88 99 C85.31888501 100.52093832 82.43483745 101.34165886 79.5 102.25 C48.73842616 112.70307465 22.10650663 134.93790855 2.15625 160.28515625 C0.20759146 162.73863031 -1.81307745 165.10957285 -3.87133789 167.47119141 C-26.39061401 193.46386747 -45.30677036 224.2137568 -62.6640625 253.84033203 C-63.19773437 254.75024902 -63.73140625 255.66016602 -64.28125 256.59765625 C-64.9937793 257.82947632 -64.9937793 257.82947632 -65.72070312 259.08618164 C-67 261 -67 261 -69 262 C-65.35501028 219.68255838 -46.00728923 172.62170266 -19.8125 139.55078125 C-18.06079097 137.08555281 -16.98487672 134.84690927 -16 132 C-21.07412144 126.19163876 -26.30685887 120.58677405 -31.75 115.125 C-32.29229248 114.5781958 -32.83458496 114.0313916 -33.39331055 113.46801758 C-36.44814058 110.42443749 -39.57082151 107.62903684 -43 105 C-42.67 104.34 -42.34 103.68 -42 103 C-41.20335937 103.27714844 -40.40671875 103.55429688 -39.5859375 103.83984375 C-38.52632812 104.20207031 -37.46671875 104.56429687 -36.375 104.9375 C-34.80878906 105.47697266 -34.80878906 105.47697266 -33.2109375 106.02734375 C-18.63893005 110.44149199 -1.82856696 109.06211916 11.75 102.375 C20.72703255 97.11572841 26.088202 89.93630503 29 80 C34.13983873 59.4753737 26.26850217 40.40556823 16.2421875 22.9375 C12.61807732 17.0040731 8.43534311 11.68949736 3.91796875 6.41015625 C2.24992802 4.31406434 1.07011196 2.44030823 0 0 Z " fill="#DFDFDF" transform="translate(643,97)"/>
</svg>
