<?xml version="1.0" encoding="UTF-8"?>
<svg version="1.1" xmlns="http://www.w3.org/2000/svg" width="1024" height="1024">
<path d="M0 0 C337.92 0 675.84 0 1024 0 C1024 337.92 1024 675.84 1024 1024 C686.08 1024 348.16 1024 0 1024 C0 686.08 0 348.16 0 0 Z " fill="#202020" transform="translate(0,0)"/>
<path d="M0 0 C4.76932233 3.95752278 9.1797614 8.11121526 13.49609375 12.55859375 C16.19902658 15.19405868 19.01941875 17.65042015 21.86987305 20.1237793 C25.39078373 23.2250055 28.78427813 26.45833574 32.1875 29.6875 C41.3395105 38.33567508 50.58440573 46.87614745 59.875 55.375 C66.96580828 61.86393596 73.98025957 68.43440503 81 75 C90.3041962 83.69858363 99.63144743 92.37076601 109 101 C111.12551261 102.95777796 113.25059312 104.91602222 115.375 106.875 C115.90407959 107.36282959 116.43315918 107.85065918 116.97827148 108.35327148 C121.23167204 112.27992919 125.46063996 116.23231362 129.6875 120.1875 C134.5219422 124.70996408 139.39794014 129.17642146 144.3359375 133.5859375 C147.80220781 136.72692732 151.21228196 139.92604653 154.625 143.125 C158.99433999 147.21903824 163.38350369 151.26492926 167.921875 155.171875 C170.78514393 157.69069053 173.57782982 160.28321504 176.375 162.875 C183.80874314 169.76102742 191.3178591 176.55359447 198.9609375 183.20703125 C201.20289813 185.17841043 203.41385803 187.18162691 205.625 189.1875 C210.90098759 193.95054435 216.29759265 198.56526333 221.703125 203.1796875 C225.49775834 206.42012181 229.25767946 209.69931977 233 213 C232.360625 214.134375 231.72125 215.26875 231.0625 216.4375 C230.381875 217.68080078 230.381875 217.68080078 229.6875 218.94921875 C228.44242884 221.200146 227.17081555 223.42337933 225.875 225.64453125 C215.0691309 244.58481849 210.84576996 264.79015209 210.9609375 286.47265625 C210.96375732 287.48783325 210.96657715 288.50301025 210.96948242 289.5489502 C210.97678959 292.03265799 210.98703162 294.5163164 211 297 C209.75089844 297.01458252 208.50179688 297.02916504 207.21484375 297.04418945 C202.50298895 297.10292742 197.79157515 297.18014279 193.08007812 297.26245117 C191.05541229 297.29535039 189.03066243 297.32348646 187.00585938 297.34643555 C160.12560755 297.1023819 160.12560755 297.1023819 137 308.95703125 C131.92808658 315.33349932 130.67864539 321.46962818 130.8125 329.4375 C130.81314453 330.16259766 130.81378906 330.88769531 130.81445312 331.63476562 C130.85120851 336.18018143 131.26141267 340.51529776 132 345 C129.33326267 343.66663133 129.21459807 342.4134075 128.0625 339.6875 C119.57861733 322.39818808 102.6356264 313.49833176 85.12548828 307.34082031 C74.49609274 303.79321594 63.48827227 302.20925658 52.41796875 300.734375 C51.6437067 300.63011892 50.86944466 300.52586285 50.07172012 300.41844749 C25.83648097 297.17475459 1.50140347 294.74667443 -22.81561279 292.21051025 C-29.20041171 291.54341728 -35.58454913 290.87005361 -41.96875 290.19726562 C-52.36352592 289.10259314 -62.75874429 288.01222983 -73.15435219 286.92548847 C-82.43672296 285.95495243 -91.71847452 284.97858347 -101 284 C-101 283.67 -101 283.34 -101 283 C-58.26870388 278.21195262 -15.53098457 273.48233229 27.21722412 268.8475647 C31.6049902 268.37175781 35.99255469 267.89415618 40.37994385 267.41488647 C113.4407025 259.43893025 113.4407025 259.43893025 138.51245117 259.66381836 C141.36469947 259.68794148 144.2160308 259.6842493 147.06835938 259.67773438 C160.13241305 259.69891731 173.01387696 260.60212637 186 262 C181.15650787 228.57792534 165.98095253 199.43907707 144 174 C143.31808594 173.195625 142.63617188 172.39125 141.93359375 171.5625 C127.69003724 155.19421407 110.4895981 142.26140395 92.5625 130.1875 C91.96638916 129.7850708 91.37027832 129.3826416 90.75610352 128.96801758 C85.25318908 125.34472888 80.86246725 123.15736526 74.25 124.1796875 C69.56942629 125.88614667 67.54860844 129.93153176 65 134 C64.61118652 134.59989746 64.22237305 135.19979492 63.82177734 135.81787109 C42.39885314 168.90520534 27.46633855 205.08147793 21 244 C-11.47406613 232.47886992 -36.96851584 194.59970731 -51.09375 165.140625 C-59.6369284 146.82141116 -65.75811743 127.13829001 -68 107 C-62.90002846 111.07997723 -58.50316086 115.60636182 -54.14404297 120.45166016 C-50.69161193 124.28198112 -47.10340452 127.92382015 -43.36328125 131.4765625 C-42 133 -42 133 -42 135 C-41.40316406 135.26683594 -40.80632812 135.53367187 -40.19140625 135.80859375 C-37.95425676 137.02486932 -36.65579933 138.20357259 -34.9375 140.0625 C-27.76734364 147.39870209 -19.52584571 153.47916534 -11.25 159.5 C-10.54117676 160.02875732 -9.83235352 160.55751465 -9.10205078 161.10229492 C-4.79794711 164.17902899 -1.47282968 166.01314005 4 166 C17.15976476 160.41436131 25.72210387 142.4127708 31 130 C43.58601293 97.56821597 30.47570652 66.43988362 17.29229736 36.47637939 C12.56574607 25.8234156 7.37902056 15.41064275 2.00878906 5.06762695 C1 3 1 3 0 0 Z " fill="#DDDDDD" transform="translate(189,223)"/>
<path d="M0 0 C7.92 0 15.84 0 24 0 C24.0680022 34.87963079 24.12162725 69.75923811 24.15319599 104.63892096 C24.15694753 108.76888362 24.16083055 112.89884614 24.16479492 117.02880859 C24.16558185 117.85091344 24.16636878 118.67301828 24.16717956 119.52003539 C24.18018754 132.78285485 24.2038156 146.04563479 24.23145839 159.30843091 C24.25964153 172.94553399 24.27620335 186.58261655 24.28226548 200.21974754 C24.28635535 208.61569441 24.29921064 217.0115295 24.3237494 225.40744191 C24.33976653 231.1866397 24.34436482 236.96578081 24.34050413 242.74499911 C24.338607 246.0654783 24.34295198 249.3856101 24.35761642 252.70607948 C24.44951323 274.6113898 22.4631072 295.74475089 17.89282227 317.17211914 C17.42178236 319.38638554 16.96902165 321.60392829 16.51757812 323.82226562 C14.27724414 334.58413379 14.27724414 334.58413379 12 338 C11.11894265 333.98047096 10.24551454 329.95932524 9.375 325.9375 C9.10647217 324.69790527 8.83794434 323.45831055 8.5612793 322.18115234 C7.07844321 315.28571178 5.66979543 308.38181907 4.37109375 301.44921875 C4.17377655 300.40141487 4.17377655 300.40141487 3.97247314 299.33244324 C3.33393665 295.9345593 2.7060093 292.53519577 2.09326172 289.13256836 C1.86268066 287.89514893 1.63209961 286.65772949 1.39453125 285.3828125 C1.19706299 284.29371582 0.99959473 283.20461914 0.79614258 282.08251953 C-0.26988551 277.9550523 -1.32485764 274.17387191 -4.92871094 271.6484375 C-12.50840541 269.27553928 -18.8859937 271.69597438 -25.75 275 C-26.62325928 275.40863281 -27.49651855 275.81726563 -28.39624023 276.23828125 C-47.71335997 285.44692204 -64.18941556 297.51739103 -74 317 C-129.02961258 308.29286721 -184.80852694 268.47259148 -217.5378418 224.14916992 C-220.07213273 220.58919794 -222.15152988 216.95669258 -224 213 C-222.9584375 212.91363281 -221.916875 212.82726562 -220.84375 212.73828125 C-181.43714278 209.06305363 -147.7287107 184.47650275 -122.4140625 155.16357422 C-117.06955325 148.69927951 -112.11663998 141.94850198 -107.4375 134.98828125 C-106.08544808 133.11818769 -104.64693384 131.60672995 -103 130 C-104.47973527 137.53392097 -106.84360748 144.57333481 -109.375 151.8125 C-117.59596712 175.8689903 -124.48988374 203.9585858 -113.41015625 228.25 C-105.88565856 242.92381268 -94.60628458 250.16062061 -79.52734375 255.94921875 C-64.41587726 260.05464606 -48.6951913 256.26925384 -35.296875 248.99609375 C-23.61808832 241.92516959 -16.5828217 229.93315361 -12.625 217.125 C-9.10623733 202.6867427 -8.59058444 188.28555514 -8.625 173.5 C-8.62631424 172.11586411 -8.62631424 172.11586411 -8.62765503 170.70376587 C-8.74344217 133.65949179 -19.12179483 103.38533936 -39.1640625 72.421875 C-51.54922792 53.25929488 -51.54922792 53.25929488 -54 45 C-53.67 44.34 -53.34 43.68 -53 43 C-52.40574219 43.37511719 -51.81148437 43.75023437 -51.19921875 44.13671875 C-34.60318722 54.38341318 -20.7185452 58 -1 58 C-0.67 38.86 -0.34 19.72 0 0 Z " fill="#DDDDDD" transform="translate(500,618)"/>
<path d="M0 0 C12.80387618 10.17744004 22.40905984 22.7564838 28.25 38 C28.49645264 38.64026123 28.74290527 39.28052246 28.99682617 39.94018555 C36.60257983 60.77516576 35.5249145 86.1810255 26.2644043 106.22875977 C15.99461709 127.32445984 -0.75369817 143.94017674 -23 152 C-30.47629443 154.30701554 -38.1430574 156.66327389 -46 157 C-47.0725 157.0515625 -48.145 157.103125 -49.25 157.15625 C-70.83630811 157.6959077 -93.28366257 151.43182947 -109.375 136.5 C-111.27022198 134.68593208 -113.1351217 132.84565275 -115 131 C-116.01900391 130.071875 -116.01900391 130.071875 -117.05859375 129.125 C-131.95553408 115.32293502 -139.03439991 93.55601827 -140.1875 73.78515625 C-140.6581923 49.51508434 -133.04837275 28.14448675 -117 10 C-116.20722656 9.08347656 -116.20722656 9.08347656 -115.3984375 8.1484375 C-85.59919789 -23.99951065 -34.25246802 -24.85983893 0 0 Z " fill="#DDDDDD" transform="translate(565,435)"/>
<path d="M0 0 C0.33 0 0.66 0 1 0 C1.13462646 1.06190552 1.13462646 1.06190552 1.27197266 2.14526367 C6.64885522 43.86715524 6.64885522 43.86715524 30.69921875 77.12109375 C39.66305925 83.13449302 48.13190349 86.29067813 59 85 C70.6339781 82.49742853 79.02923519 76.77237465 85.4921875 66.77734375 C92.14938347 54.51499573 93.12705174 40.32757669 89.3125 27 C86.00778272 17.7628562 81.63281551 11.19928661 74.890625 4.06640625 C73 2 73 2 72 0 C89.01233583 2.36009283 106.049176 16.99999456 116.2734375 29.859375 C127.44790063 45.19089097 136.8930586 64.56783433 135 84 C134.03863712 88.16450951 132.66311363 92.11721741 131.1875 96.125 C130.5828894 97.8107312 130.5828894 97.8107312 129.96606445 99.53051758 C117.13883205 134.61252057 99.4761339 166.26977207 77 196 C75.86132205 197.51643388 74.72327024 199.03333819 73.5859375 200.55078125 C73.08884277 201.21376221 72.59174805 201.87674316 72.07958984 202.55981445 C71.7233252 203.03507568 71.36706055 203.51033691 71 204 C69.83708843 200.03143621 70.37366043 197.09464166 71 193 C72.14236917 166.4067084 66.15855387 141.12067659 48 121 C47.37480469 120.29359375 46.74960937 119.5871875 46.10546875 118.859375 C33.73291525 105.65526495 14.21995447 96.45054252 -3.87109375 95.76171875 C-21.39273988 95.41223039 -39.48311855 97.47909929 -53 110 C-53.94198869 111.81607134 -53.94198869 111.81607134 -54 114 C-52.89842519 116.49968989 -52.89842519 116.49968989 -51.125 119.05078125 C-50.15312744 120.54581177 -50.15312744 120.54581177 -49.16162109 122.07104492 C-48.44828613 123.1407251 -47.73495117 124.21040527 -47 125.3125 C-46.26395254 126.43582979 -45.52910486 127.55994656 -44.79541016 128.68481445 C-43.28217642 131.00047572 -41.76199107 133.31131908 -40.23535156 135.61816406 C-37.54396959 139.68545615 -34.88135792 143.77133626 -32.21899414 147.85766602 C-30.98267488 149.75494875 -29.74486461 151.65126069 -28.50561523 153.54663086 C-23.1382165 161.76002536 -17.86608513 170.03189612 -12.609375 178.31640625 C-4.20824179 191.55631369 4.24852872 204.76178229 12.75 217.9375 C13.17410156 218.59548584 13.59820313 219.25347168 14.03515625 219.93139648 C16.42859676 223.62782089 18.86576419 227.290591 21.33984375 230.93359375 C21.89768555 231.75802979 22.45552734 232.58246582 23.03027344 233.43188477 C24.1119206 235.02646979 25.19955582 236.61701402 26.29394531 238.20288086 C26.77831055 238.91710205 27.26267578 239.63132324 27.76171875 240.3671875 C28.19444092 240.99737793 28.62716309 241.62756836 29.07299805 242.27685547 C30 244 30 244 30 247 C7.82228297 224.84511312 -14.3528625 202.68765624 -36.52443999 180.52662534 C-39.14412258 177.9081934 -41.763827 175.28978331 -44.38354492 172.67138672 C-44.90506633 172.15012762 -45.42658775 171.62886852 -45.96391284 171.09181368 C-54.39983756 162.66023603 -62.83752817 154.23042767 -71.27587683 145.80127597 C-79.93931461 137.1472015 -88.60084243 128.49121885 -97.26061338 119.83347511 C-102.60088683 114.49457133 -107.94263082 109.15714777 -113.28628688 103.82162958 C-117.38895562 99.72488943 -121.48896057 95.62549162 -125.58799362 91.52511406 C-127.2660719 89.84731036 -128.94500404 88.17036015 -130.62486458 86.4943409 C-132.9237545 84.20044917 -135.21951092 81.90346484 -137.51454163 79.60571289 C-138.50533072 78.61929306 -138.50533072 78.61929306 -139.51613575 77.61294556 C-143.3407333 73.77613538 -146.97584645 69.82478716 -150.50882387 65.71744204 C-152.35257364 63.59392805 -154.29134767 61.58842118 -156.28295898 59.60351562 C-157.04321884 58.8433313 -157.8034787 58.08314697 -158.58677673 57.29992676 C-159.38185135 56.51001343 -160.17692596 55.7201001 -160.99609375 54.90625 C-161.82963882 54.07411987 -162.6631839 53.24198975 -163.52198792 52.38464355 C-166.15813262 49.75405065 -168.79775105 47.12697559 -171.4375 44.5 C-173.23655979 42.70596145 -175.0353902 40.91169285 -176.83398438 39.1171875 C-181.22000812 34.74212875 -185.60888142 30.36994488 -190 26 C-189.04582125 24.87967389 -188.09062826 23.76021156 -187.13500977 22.64111328 C-186.60319595 22.01761993 -186.07138214 21.39412659 -185.52345276 20.7517395 C-183.74239391 18.70379209 -181.87423307 16.77594129 -179.9375 14.875 C-179.26589844 14.21242188 -178.59429688 13.54984375 -177.90234375 12.8671875 C-177.27457031 12.25101563 -176.64679687 11.63484375 -176 11 C-174.99879446 10.001207 -173.99858457 9.00141343 -173 8 C-172.34 7.34 -171.68 6.68 -171 6 C-169.80903249 7.16312671 -168.62247296 8.33076672 -167.4375 9.5 C-166.77621094 10.1496875 -166.11492188 10.799375 -165.43359375 11.46875 C-163.45019963 13.53173457 -161.58496098 15.62727148 -159.72265625 17.796875 C-135.77398022 45.33897437 -101.04815035 71.09329535 -63.55078125 74.203125 C-51.20767854 74.4616193 -39.59632428 70.63644017 -30.20703125 62.43359375 C-29.1157335 61.31029313 -28.053487 60.1588357 -27 59 C-26.34 59 -25.68 59 -25 59 C-24.74347656 58.43410156 -24.48695313 57.86820313 -24.22265625 57.28515625 C-22.86331987 54.74454353 -21.23008135 52.69361754 -19.4375 50.4375 C-8.59288145 35.59023133 -2.75531074 18.05302558 0 0 Z " fill="#DDDDDD" transform="translate(772,569)"/>
<path d="M0 0 C0.99 0.495 0.99 0.495 2 1 C-0.14685203 3.62393026 -2.29382449 6.24776064 -4.44140625 8.87109375 C-6.03554834 10.81922299 -7.62632369 12.76992525 -9.21484375 14.72265625 C-15.05404355 21.89230663 -21.00396616 28.9616126 -27 36 C-27.49967285 36.58749023 -27.9993457 37.17498047 -28.51416016 37.78027344 C-33.50500592 43.64495334 -38.50458054 49.49079548 -43.6875 55.1875 C-47.54241068 59.43137464 -51.15721293 63.83661671 -54.7578125 68.296875 C-56.88781558 70.86475328 -59.10281806 73.30801086 -61.375 75.75 C-65.11497591 79.86463079 -68.50604186 84.16111569 -71.8125 88.625 C-72.26866699 89.2344043 -72.72483398 89.84380859 -73.19482422 90.47167969 C-78.78179169 98.13651305 -82.64644711 105.30329339 -82 115 C-78.61308463 127.91261486 -68.24762343 136.52127424 -57.13818359 143.10302734 C-39.27930581 153.19952209 -19.42245987 157.69599915 0.76171875 152.15625 C23.41247312 144.06864651 38.24520776 129.07924017 48.921875 107.640625 C60.60190384 82.6732239 61.65132087 54.64194126 56 28 C94.30850469 63.50970982 116.29427547 143.3637529 121 194 C120.55859375 196.421875 120.55859375 196.421875 120 198 C119.53851562 197.07960938 119.07703125 196.15921875 118.6015625 195.2109375 C109.64632568 177.69235753 99.24191594 160.48503844 79.7265625 153.89453125 C60.48138629 149.27488203 42.27847953 156.06404024 26 166 C15.5092129 172.61798153 6.17474418 180.69188523 -3 189 C-3.87930176 189.78955078 -4.75860352 190.57910156 -5.66455078 191.39257812 C-16.05923295 200.80556341 -25.8759741 210.79775661 -35.75 220.75 C-39.17945407 224.20596071 -42.61216838 227.65863548 -46.046875 231.109375 C-47.22476593 232.29971344 -47.22476593 232.29971344 -48.42645264 233.51409912 C-49.14520569 234.2361554 -49.86395874 234.95821167 -50.60449219 235.70214844 C-51.23812683 236.3410199 -51.87176147 236.97989136 -52.52459717 237.63812256 C-54 239 -54 239 -55 239 C-55.13462646 237.99924438 -55.13462646 237.99924438 -55.27197266 236.97827148 C-60.10274181 201.77622206 -68.03619243 163.86286933 -98 141 C-103.23321822 137.31272249 -107.84364721 136.54420627 -114.19140625 136.46875 C-120.62111684 137.68494004 -124.75943733 141.38645229 -128.9375 146.1875 C-129.88916021 147.26171613 -130.8423809 148.33455114 -131.796875 149.40625 C-132.30798828 149.98375 -132.81910156 150.56125 -133.34570312 151.15625 C-136.39768359 154.55774888 -139.54773833 157.86722674 -142.6875 161.1875 C-144.05481185 162.63660143 -145.42199764 164.08582182 -146.7890625 165.53515625 C-147.4790332 166.26621582 -148.16900391 166.99727539 -148.87988281 167.75048828 C-151.03533343 170.03748989 -153.18626635 172.32865966 -155.3359375 174.62109375 C-156.04403564 175.37559814 -156.75213379 176.13010254 -157.48168945 176.9074707 C-158.82479791 178.33882751 -160.16713945 179.77090452 -161.50854492 181.20385742 C-165.07736115 185.00373133 -168.69955829 188.73256788 -172.41894531 192.38549805 C-174.08964072 194.09153707 -175.64256614 195.86734099 -177.1875 197.6875 C-181.70233781 202.92921646 -186.6543808 207.73546083 -191.57519531 212.59130859 C-193.72629721 214.71808343 -195.86298905 216.85907511 -198 219 C-198.83402344 218.14277344 -199.66804687 217.28554688 -200.52734375 216.40234375 C-206.6931687 210.11902206 -212.79852141 204.11732974 -220 199 C-216.02220544 193.25429674 -211.58419423 188.40577276 -206.57910156 183.56542969 C-203.12374912 180.2057429 -199.93482611 176.68523812 -196.78344727 173.03955078 C-193.91701564 169.76149879 -190.92706521 166.6029455 -187.9375 163.4375 C-186.61442797 162.03139618 -185.29151498 160.62514268 -183.96875 159.21875 C-183.30617188 158.51492188 -182.64359375 157.81109375 -181.9609375 157.0859375 C-178.94480774 153.87754449 -175.94061762 150.65806865 -172.9375 147.4375 C-171.78255794 146.19921329 -170.62761002 144.96093204 -169.47265625 143.72265625 C-168.9017627 143.1105127 -168.33086914 142.49836914 -167.74267578 141.86767578 C-165.97394678 139.97207802 -164.20394751 138.07767412 -162.43359375 136.18359375 C-161.84610352 135.55477295 -161.25861328 134.92595215 -160.65332031 134.27807617 C-159.46432859 133.00567221 -158.27487264 131.73370188 -157.08496094 130.4621582 C-154.47986529 127.67464807 -151.88982996 124.87805483 -149.33203125 122.046875 C-142.78560914 114.81390049 -135.97930102 107.84592766 -129.10342407 100.92718506 C-128.01011742 99.82648809 -126.91840723 98.72420259 -125.82846069 97.62017822 C-118.8917461 90.60222053 -111.77717391 84.09940683 -104 78 C-102.80846269 77.04573654 -101.61703644 76.09133437 -100.42578125 75.13671875 C-88.13448468 65.4671542 -75.61974466 56.12640922 -62.92285156 46.99658203 C-56.61834463 42.46008399 -50.36453602 37.85748177 -44.11938477 33.23974609 C-38.65064682 29.20151812 -33.14648133 25.21570482 -27.625 21.25 C-18.18062696 14.45660716 -8.90974274 7.48629272 0 0 Z " fill="#DDDDDD" transform="translate(796,212)"/>
<path d="M0 0 C-2.66423667 1.77615778 -4.68472644 2.70129822 -7.6640625 3.7421875 C-41.95851354 15.99647284 -72.69057619 32.62741028 -99 58 C-99.78632813 58.73476562 -100.57265625 59.46953125 -101.3828125 60.2265625 C-116.11090864 74.33884974 -130.79147788 94.43948087 -131.5 115.4375 C-130.56277245 142.53440254 -107.60379122 163.5483374 -89 181 C-82.44412807 187.62884853 -82.44412807 187.62884853 -74 190 C-73.58492187 188.88109375 -73.16984375 187.7621875 -72.7421875 186.609375 C-58.88372121 150.1989824 -38.89319975 116.89537936 -14 87 C-12.87847888 90.36456337 -13.03439404 90.73743944 -14.3359375 93.83203125 C-14.65385254 94.61449219 -14.97176758 95.39695312 -15.29931641 96.203125 C-15.83177979 97.49476563 -15.83177979 97.49476563 -16.375 98.8125 C-25.48117514 121.90475332 -31.60436112 145.60679456 -36 170 C-36.14550293 170.76844238 -36.29100586 171.53688477 -36.44091797 172.32861328 C-44.35696617 215.12573445 -31.24213668 251.72089918 -12 289 C-11.5781543 289.81758789 -11.15630859 290.63517578 -10.72167969 291.47753906 C-5.77837214 301.02255943 -0.68382431 310.48704048 4.4375 319.9375 C4.94595459 320.87980469 5.45440918 321.82210938 5.97827148 322.79296875 C6.69865601 324.11554688 6.69865601 324.11554688 7.43359375 325.46484375 C7.85697021 326.244646 8.28034668 327.02444824 8.71655273 327.82788086 C10.00852019 330.01441966 11.4385802 331.99920856 13 334 C12.67 334.66 12.34 335.32 12 336 C11.0821875 335.14277344 10.164375 334.28554688 9.21875 333.40234375 C7.97945382 332.24708771 6.73984968 331.09216198 5.5 329.9375 C4.85361572 329.33550781 4.20723145 328.73351562 3.54125977 328.11328125 C0.38615838 325.18368579 -2.77946758 322.28667763 -6.0625 319.5 C-13.95677139 312.67758011 -21.38895894 305.09784616 -28.13671875 297.14453125 C-30.14073125 294.83802629 -32.21295208 292.60748862 -34.29858398 290.375 C-39.30878823 285.0117459 -44.06086487 279.54008147 -48.65625 273.8125 C-51.81803441 270.01835871 -55.18545364 266.43716235 -58.56079102 262.83374023 C-61.65780084 259.508452 -64.59621684 256.11280061 -67.4375 252.5625 C-72.02030231 246.85277909 -76.99049425 241.55432427 -81.99609375 236.21875 C-84.82371009 233.20216146 -87.56052023 230.11845423 -90.26171875 226.98828125 C-93.24377587 223.57734401 -96.31544633 220.24760466 -99.375 216.90625 C-101.39869276 214.66573302 -103.39108674 212.40753182 -105.37109375 210.12890625 C-108.84697438 206.14614592 -112.43283808 202.27995861 -116.0625 198.4375 C-117.39743035 197.02111125 -118.73205944 195.6044385 -120.06640625 194.1875 C-120.73043457 193.48238281 -121.39446289 192.77726563 -122.07861328 192.05078125 C-123.82252667 190.18942516 -125.55333485 188.31727693 -127.27734375 186.4375 C-134.6263462 178.44147189 -142.20579215 170.68764051 -149.875 163 C-150.36750244 162.50490936 -150.86000488 162.00981873 -151.36743164 161.49972534 C-157.06507253 155.7784275 -162.85367897 150.23943161 -169 145 C-170.07209878 144.05149438 -171.14248553 143.10104922 -172.2109375 142.1484375 C-185.18421625 130.71712327 -199.14663618 120.82859847 -214 112 C-214.99 111.34 -215.98 110.68 -217 110 C-202.85744131 92.00378113 -186.87707554 76.18170031 -168.69677734 62.30712891 C-167.08044106 61.06196855 -165.48678783 59.78752685 -163.89453125 58.51171875 C-118.30091137 22.27952653 -58.36130149 -1.04908313 0 0 Z " fill="#DDDDDD" transform="translate(438,74)"/>
<path d="M0 0 C19.24166525 14.05909638 37.80494238 30.57128343 53 49 C53.45697266 49.54317871 53.91394531 50.08635742 54.38476562 50.64599609 C74.30878216 74.34763594 86.9936892 97.71971071 92.83129883 128.24682617 C95.46558549 141.88132403 99.5295197 154.24950879 111 163 C124.99343681 171.0044762 143.23523824 171.2783857 158.6875 167.375 C166.71049783 165.04949338 174.05394578 161.63070281 181 157 C176.69720331 169.39945713 165.98783476 179.77282207 157 189 C156.02619385 190.01247803 156.02619385 190.01247803 155.03271484 191.04541016 C146.42429234 199.97662329 137.72011776 208.37201952 127.71826172 215.72607422 C125.96964318 217.02250666 124.25171197 218.35288718 122.53515625 219.69140625 C95.56993439 240.44981847 62.57723399 254.50842077 29.8125 263.25 C28.66491211 263.55695801 28.66491211 263.55695801 27.49414062 263.87011719 C24.14262212 264.70098201 22.34117179 265.11372393 19 264 C19.38671875 263.59910156 19.7734375 263.19820312 20.171875 262.78515625 C27.58449663 254.6936559 29.71408898 247.75416307 29.3828125 236.72265625 C28.21217011 225.33875629 22.63336346 216.48839155 13.87890625 209.3203125 C10.76014536 207.12875079 7.4645135 205.5803044 4 204 C6.74981913 202.16678725 9.52088346 200.75742325 12.49633789 199.33569336 C19.64913051 195.89752914 26.06737919 192.35171836 32 187 C32.598125 186.49339844 33.19625 185.98679687 33.8125 185.46484375 C48.20226289 172.39200113 53.96912281 151.85420117 55 133 C56.42203387 88.24512313 32.53881749 43.95533876 6.03613281 9.43017578 C5.54209961 8.78290527 5.04806641 8.13563477 4.5390625 7.46875 C4.09771973 6.89576172 3.65637695 6.32277344 3.20166016 5.73242188 C1.9273682 3.89528743 0.95295047 2.01983465 0 0 Z " fill="#DDDDDD" transform="translate(565,674)"/>
<path d="M0 0 C-2.43972073 1.95956293 -4.88375448 3.91012142 -7.359375 5.82421875 C-24.74725342 19.37653576 -37.68938471 36.69825827 -41 59 C-42.15809333 73.42064164 -39.1172383 86.0328446 -30.03125 97.48046875 C-23.34966616 104.70674692 -14.05377652 110.63545867 -4.04296875 111.23828125 C6.31212826 111.47702167 15.1985651 110.68995196 25 107 C26.13695312 106.5875 27.27390625 106.175 28.4453125 105.75 C43.15739433 99.95732349 55.3133186 90.46306021 67 80 C67.97710937 79.13375 68.95421875 78.2675 69.9609375 77.375 C78.10537555 70.04989533 85.79934803 62.26921258 93.49023438 54.47314453 C97.84510622 50.0747896 102.24930969 45.85180589 106.94799805 41.82495117 C111.14494508 38.09238971 115.04968892 34.05225351 119 30.0625 C119.87011719 29.18787109 120.74023438 28.31324219 121.63671875 27.41210938 C123.76013549 25.27702551 125.88116378 23.13962795 128 21 C128 24.21580596 127.52417318 25.24844859 126.015625 28 C125.36412476 29.1924231 125.36412476 29.1924231 124.69946289 30.40893555 C124.22114014 31.26398682 123.74281738 32.11903809 123.25 33 C122.75556396 33.88921143 122.26112793 34.77842285 121.75170898 35.69458008 C110.20133397 56.24694574 96.92872694 75.75377818 82 94 C81.53658203 94.56783203 81.07316406 95.13566406 80.59570312 95.72070312 C69.62498613 109.06916126 57.66468615 121.39314571 44 132 C42.91127961 132.87707127 41.82411777 133.75607968 40.73828125 134.63671875 C17.81064363 153.13618813 -8.84735142 169.0884907 -38 175 C-37.95875 173.865625 -37.9175 172.73125 -37.875 171.5625 C-37.97205507 140.60193193 -49.7251095 110.81471445 -71.37109375 88.5625 C-79.69588831 80.67725459 -88.96442184 75.12674715 -100 72 C-90.02647582 44.21306697 -57.77225925 20.81387655 -32.46875 8.24609375 C-22.77639307 3.81117355 -10.84020941 -0.54940632 0 0 Z " fill="#DDDDDD" transform="translate(214,566)"/>
<path d="M0 0 C0.47961182 0.37817871 0.95922363 0.75635742 1.45336914 1.14599609 C36.95225478 28.86341405 82.79424786 30.8574118 125.90825272 34.84927368 C130.96142985 35.31891056 136.01372633 35.79785663 141.06616211 36.27539062 C163.11652907 38.35533909 185.17134499 40.38774549 207.22579193 42.42388535 C210.98617215 42.7710788 214.74653522 43.11845743 218.50689697 43.46585083 C229.47258548 44.47854894 240.43840423 45.48966922 251.40510464 46.4913578 C255.934321 46.90541029 260.46335126 47.3214741 264.99234962 47.73790359 C267.10541821 47.9316673 269.21857491 48.12447283 271.33182335 48.31626511 C274.22477862 48.57887924 277.1174193 48.84473032 280.01000977 49.11132812 C280.85444578 49.1871216 281.6988818 49.26291508 282.56890678 49.34100533 C286.43843569 49.70082788 290.20368379 50.12941497 294 51 C294 51.33 294 51.66 294 52 C293.15939529 52.07801849 292.31879059 52.15603699 291.45271301 52.23641968 C248.21714418 56.25219218 204.98948693 60.34736748 161.77670288 64.60186768 C157.43054609 65.02976357 153.08421289 65.45578833 148.73770142 65.88006592 C119.31511424 68.7515573 119.31511424 68.7515573 89.94921875 72.14453125 C88.72414108 72.29662048 87.49906342 72.44870972 86.23686218 72.60540771 C55.09522239 76.60556346 24.15560565 82.62038522 -2 101 C-1.81824219 100.44054687 -1.63648438 99.88109375 -1.44921875 99.3046875 C2.09417438 88.00217198 4.2790087 76.82425738 5 65 C-2.59 65 -10.18 65 -18 65 C-18 55.76 -18 46.52 -18 37 C-10.41 37 -2.82 37 5 37 C4.59003957 24.18873648 2.96894177 12.45574642 0 0 Z " fill="#DDDDDD" transform="translate(642,455)"/>
<path d="M0 0 C0.33 0 0.66 0 1 0 C1.16039434 1.19730098 1.16039434 1.19730098 1.32402897 2.41878986 C3.96262765 22.11479048 6.60215828 41.81066602 9.24264622 61.50641346 C10.51970112 71.03229375 11.79647183 80.55821194 13.07250977 90.08422852 C14.42758825 100.20013798 15.78351918 110.31593295 17.14012098 120.43163824 C17.50365633 123.14266749 17.86706328 125.85371392 18.23045731 128.56476212 C20.55464967 145.90123153 22.88412153 163.23680417 25.27685547 180.56396484 C25.44653178 181.7933953 25.6162081 183.02282576 25.79102612 184.28951168 C26.55391587 189.81107193 27.32050995 195.33207974 28.09339905 200.85224915 C28.35257683 202.71749495 28.61172894 204.58274431 28.87084961 206.44799805 C28.98760733 207.27210615 29.10436504 208.09621426 29.22466087 208.94529533 C29.69533998 212.3463343 30 215.55814911 30 219 C28.80375 219.515625 27.6075 220.03125 26.375 220.5625 C20.43051592 223.58208749 16.53806535 227.68011082 14.36401367 234.04638672 C12.06299997 242.19790836 12.51726794 250.73356939 12.48828125 259.1328125 C12.4714122 260.97941261 12.453259 262.82600139 12.43388367 264.6725769 C12.38661912 269.50244608 12.35665803 274.33226931 12.33044434 279.16229248 C12.3005193 284.10307891 12.25403033 289.04370739 12.20898438 293.984375 C12.12321936 303.65618501 12.05728895 313.32797936 12 323 C4.08 322.67 -3.84 322.34 -12 322 C-11.98952637 319.65922363 -11.97905273 317.31844727 -11.96826172 314.90673828 C-11.93501414 307.14356375 -11.9129874 299.38038594 -11.89637566 291.61715889 C-11.88597078 286.91367936 -11.87187222 282.21027323 -11.84912109 277.50683594 C-11.82727461 272.96160035 -11.81540663 268.41643504 -11.81024551 263.87115097 C-11.80657085 262.1433489 -11.79939554 260.41555035 -11.78853989 258.68777847 C-11.46822169 240.03544755 -11.46822169 240.03544755 -20 224 C-22.76354973 221.58938554 -25.5033303 220.16555657 -29 219 C-28.36419184 208.46283103 -27.01285845 198.08817979 -25.55078125 187.640625 C-25.29846631 185.8152557 -25.04656094 183.98982974 -24.79502869 182.16435242 C-24.25430593 178.24428851 -23.71145044 174.32452864 -23.16687012 170.40499878 C-21.69651946 159.81952577 -20.24091953 149.23201849 -18.78515625 138.64453125 C-18.6330859 137.53936724 -18.48101555 136.43420322 -18.32433701 135.29554939 C-14.06957094 104.36117137 -9.96503786 73.40672112 -5.85891819 42.45232677 C-5.27754296 38.07055012 -4.69553725 33.6888573 -4.11349678 29.30716896 C-3.71339973 26.29226816 -3.3145222 23.27720783 -2.91575623 20.26213074 C-2.67467984 18.4454994 -2.43355811 16.62887407 -2.19238281 14.81225586 C-2.08546269 14.00103901 -1.97854258 13.18982216 -1.86838245 12.35402298 C-1.31851324 8.22148124 -0.71368889 4.10831819 0 0 Z " fill="#DDDDDD" transform="translate(512,66)"/>
<path d="M0 0 C3.18621303 1.50455505 5.0049478 2.88952378 7.25 5.625 C10.94112037 9.99375586 14.91622929 14.0007211 19 18 C19.99 18.99 19.99 18.99 21 20 C20.14062552 20.85845268 19.28125105 21.71690536 18.39583492 22.60137177 C-2.02195685 42.99748723 -22.43715048 63.39620073 -42.8491641 83.79809877 C-45.36369777 86.31138179 -47.87825327 88.82464296 -50.39282227 91.33789062 C-50.89340937 91.83821542 -51.39399648 92.33854022 -51.9097529 92.85402638 C-60.0061848 100.94611166 -68.10438261 109.03642747 -76.20323897 117.12608618 C-84.51863356 125.43211619 -92.83211703 133.74005548 -101.14384407 142.04975557 C-105.81026709 146.71487592 -110.47756368 151.37911461 -115.14697456 156.04124451 C-119.54442346 160.43189217 -123.93950471 164.82489611 -128.33280373 169.21969604 C-129.94315456 170.8297724 -131.55435872 172.43899583 -133.16649246 174.04728699 C-135.37342396 176.24921713 -137.5772174 178.45424278 -139.7802887 180.66003418 C-140.73022283 181.60559905 -140.73022283 181.60559905 -141.69934756 182.57026625 C-145.42815441 186.31146442 -148.96484468 190.16994049 -152.40556663 194.17807436 C-154.95960293 197.09651819 -157.686151 199.83140633 -160.4375 202.5625 C-160.95892578 203.08779297 -161.48035156 203.61308594 -162.01757812 204.15429688 C-164.83449268 206.96434927 -167.71808761 209.64580082 -170.73852539 212.23632812 C-174.84964112 215.82009755 -178.72285199 219.59407512 -182.5625 223.46484375 C-183.23925781 224.14301651 -183.91601562 224.82118927 -184.61328125 225.51991272 C-186.74457675 227.65674305 -188.87234218 229.79704823 -191 231.9375 C-192.45679779 233.39932123 -193.91382701 234.86091187 -195.37109375 236.32226562 C-198.91673973 239.878854 -202.45922739 243.43856016 -206 247 C-209.15627489 245.505927 -211.00608219 244.13346921 -213.25 241.4375 C-213.84425781 240.73496094 -214.43851563 240.03242187 -215.05078125 239.30859375 C-215.69402344 238.54675781 -216.33726562 237.78492188 -217 237 C-218.47452034 235.32922126 -219.95361962 233.6624713 -221.4375 232 C-222.45650391 230.8553125 -222.45650391 230.8553125 -223.49609375 229.6875 C-223.99238281 229.130625 -224.48867187 228.57375 -225 228 C-220.11863986 222.06354744 -214.77123109 216.65235631 -209.31978035 211.24461555 C-207.68929336 209.62705792 -206.0620959 208.0062523 -204.43565369 206.3846283 C-200.39703061 202.35927476 -196.3529611 198.33940761 -192.309021 194.31939697 C-188.88355272 190.91378094 -185.4602237 187.50604069 -182.03960991 184.09554863 C-180.44929754 182.51163993 -178.85596607 180.930814 -177.26246643 179.35011292 C-176.27126255 178.36254739 -175.28020207 177.3748379 -174.28930664 176.38696289 C-173.43470352 175.53759659 -172.5801004 174.68823029 -171.69960022 173.81312561 C-169.68391194 171.71267226 -167.7846845 169.60305281 -165.89509583 167.39509583 C-161.00202999 161.7606602 -155.67549883 156.55206973 -150.38916016 151.29150391 C-149.22697978 150.13124605 -148.06502935 148.97075783 -146.90328979 147.81005859 C-144.41607382 145.32598617 -141.92731751 142.8434714 -139.43733597 140.36217117 C-135.50195469 136.44037351 -131.57044553 132.51470936 -127.63949585 128.58847046 C-119.30429799 120.26433857 -110.96485628 111.94446426 -102.625 103.625 C-93.59965137 94.6216797 -84.57504477 85.61762277 -75.55528486 76.60870302 C-71.64480046 72.70320804 -67.73188938 68.80016551 -63.81711888 64.89896703 C-61.38999693 62.47928179 -58.96492827 60.05754686 -56.54042435 57.63523865 C-55.41293026 56.50962286 -54.28456902 55.38487494 -53.15529633 54.26104355 C-51.6188611 52.73178177 -50.08550016 51.19950307 -48.55288696 49.66641235 C-47.69272791 48.80847391 -46.83256886 47.95053547 -45.94634438 47.06659889 C-43.95608409 45.15189299 -43.95608409 45.15189299 -43 43 C-42.34 43 -41.68 43 -41 43 C-40.74852203 42.42320496 -40.49704407 41.84640991 -40.23794556 41.25213623 C-38.83873256 38.70661371 -37.25275923 37.01241884 -35.19287109 34.96582031 C-34.41221283 34.18531311 -33.63155457 33.40480591 -32.82723999 32.60064697 C-31.98448517 31.76821472 -31.14173035 30.93578247 -30.2734375 30.078125 C-29.41062164 29.21813904 -28.54780579 28.35815308 -27.65884399 27.47210693 C-24.90221971 24.7266769 -22.13872201 21.9882831 -19.375 19.25 C-17.50475143 17.38978217 -15.63495411 15.52911054 -13.765625 13.66796875 C-9.1823064 9.10670055 -4.59332522 4.55118989 0 0 Z " fill="#DDDDDD" transform="translate(420,573)"/>
<path d="M0 0 C5.64525079 1.52892209 10.12485035 4.31614941 15 7.4375 C16.25804443 8.23994141 16.25804443 8.23994141 17.54150391 9.05859375 C47.52359185 28.45574086 82.69908556 61.76453437 91 98 C90.45287354 98.1952124 89.90574707 98.3904248 89.34204102 98.59155273 C52.96727802 111.69132903 23.9002522 133.48376103 0 164 C-0.99929393 165.21367063 -2.00216144 166.42440417 -3.0078125 167.6328125 C-26.70370552 196.17446235 -47.28474392 228.54978133 -65.60620117 260.75732422 C-66.06615479 261.49740723 -66.5261084 262.23749023 -67 263 C-67.33 263 -67.66 263 -68 263 C-65.14077675 220.58027908 -44.96406405 172.56713086 -18.8125 139.55078125 C-17.06079097 137.08555281 -15.98487672 134.84690927 -15 132 C-20.05457575 126.21401277 -25.26539974 120.6283106 -30.6875 115.1875 C-31.48837036 114.37986206 -31.48837036 114.37986206 -32.30541992 113.5559082 C-35.71746257 110.1565086 -39.25909532 107.03422704 -43 104 C-41 103 -41 103 -38.390625 103.7421875 C-37.35421875 104.11601562 -36.3178125 104.48984375 -35.25 104.875 C-20.88575057 110.03602429 -4.17657561 109.70592657 9.89453125 103.78125 C19.50552583 99.04806526 25.64093235 92.4248852 29.30859375 82.359375 C34.6273948 64.20934205 29.76902638 45.83340055 21.0703125 29.6875 C16.40379042 21.2937927 11.20826119 13.76120516 5.015625 6.41015625 C3.26741718 4.31976046 1.61077702 2.19697752 0 0 Z " fill="#DDDDDD" transform="translate(642,97)"/>
</svg>
